<svg class="icon" viewBox="0 0 1024 1024" xmlns="http://www.w3.org/2000/svg" width="200" height="200"><path d="M797.246 818.916c-12.9-12.066-33.137-11.388-45.2 1.51-6.73 7.194-17.091 11.49-27.717 11.49H158.377c-11.661 0-22.963-5.198-29.496-13.568-5.167-6.62-6.743-14.146-4.685-22.37 34.276-136.936 164.696-232.575 317.157-232.575 34.939 0 69.307 5.078 102.152 15.093 16.895 5.154 34.764-4.367 39.915-21.259 4.385-14.38-1.865-29.466-14.243-36.813 51.344-39.354 84.627-102.073 84.627-172.592 0-118.867-94.56-215.573-210.79-215.573s-210.79 96.706-210.79 215.573c0 69.71 32.53 131.785 82.872 171.216-1.522.488-3.048.964-4.566 1.471-40.601 13.543-78.332 33.228-112.14 58.507-68.082 50.9-116.464 122.435-136.236 201.422-6.788 27.118-.843 55.275 16.311 77.251 18.657 23.902 48.53 38.173 79.912 38.173H724.33c28.42 0 55.548-11.576 74.425-31.756 12.065-12.9 11.39-33.135-1.508-45.2zM443.014 196.214c80.964 0 146.833 68.014 146.833 151.616s-65.87 151.616-146.833 151.616S296.18 431.432 296.18 347.83s65.869-151.616 146.833-151.616z" fill="#494949"/><path d="M927.99 535.527v-30.23c0-46.911-37.483-85.075-83.557-85.075h-79.721c-46.074 0-83.557 38.164-83.557 85.074v30.23c-21.951 13.37-36.64 37.53-36.64 65.057v90.138c0 41.97 34.143 76.114 76.112 76.114h167.891c41.97 0 76.113-34.145 76.113-76.114v-90.138c0-27.527-14.69-51.688-36.64-65.056zm-163.278-61.762h79.721c16.55 0 30.012 14.144 30.012 31.53v19.174H734.7v-19.174c0-17.385 13.463-31.53 30.012-31.53zM911.085 690.72c0 12.445-10.123 22.568-22.567 22.568H720.627c-12.444 0-22.567-10.123-22.567-22.568v-90.139c0-12.444 10.123-22.568 22.567-22.568h167.891c12.444 0 22.567 10.124 22.567 22.568v90.14z" fill="#494949"/><path d="M777.8 645.651a26.163 26.163 0 1053.545 0 26.163 26.163 0 10-53.545 0z" fill="#494949"/></svg>