<svg xmlns:vectornator="http://vectornator.io" xmlns="http://www.w3.org/2000/svg" viewBox="0 0 50 50" fill-rule="evenodd" clip-rule="evenodd" stroke-linecap="round" stroke-linejoin="round"><g vectornator:layerName="Todo grey circle" stroke="#494949" fill="#494949"><path stroke-width="0" d="M48.875 25.406c0 13.213-10.693 23.938-23.906 23.938S1.03 38.619 1.03 25.406 11.756 1.47 24.97 1.47s23.906 10.724 23.906 23.937zm-43.438 0c0 10.787 8.745 19.532 19.532 19.532 10.786 0 19.531-8.745 19.531-19.532 0-10.786-8.745-19.531-19.531-19.531-10.787 0-19.532 8.745-19.532 19.531z" stroke-linecap="butt" stroke-linejoin="miter"/><path stroke-width=".1" d="M11.134 26.983c-.42-.716 1.737-3.211 2.357-2.93.62.28 4.943 4.434 6.252 5.44 1.72 1.321 2.276 1.856 3.292.855 1.499-1.477 9.462-10.647 12.402-13.362.77-.71 3.726 2.13 3.036 2.86-.919.97-12.898 13.875-14.85 15.384-.762.59-1.47.593-1.752.594-1.623.01-10.318-8.126-10.737-8.841z"/></g></svg>