<svg xmlns:vectornator="http://vectornator.io" xmlns="http://www.w3.org/2000/svg" viewBox="0 0 50 50" fill-rule="evenodd" clip-rule="evenodd" stroke-linecap="round" stroke-linejoin="round"><g vectornator:layerName="Todo list" stroke="#494949" fill="#494949"><path d="M25.281 1c-4.319-.27-8.72 2.151-6.718 8.156-5.369.122-15.72-1.838-15.72 3.531 0 11.327.19 22.674.282 34 .011 1.371.97 1.277 2.125 1.97.256.153.545.278.844.28 12.741.093 25.477.094 38.218 0 1.248-.009 3-1.453 3-2.562 0-11.327-.188-22.643-.28-33.969C46.987 7.093 36.75 9.061 31.437 9c2.391-4.784-1.838-7.73-6.157-8zm-.218 3.344C26.741 4.04 29.524 8.706 27.468 9c-6.232.89-6.948-3.834-2.407-4.656zM7.218 13.125c11.984-.231 23.982 0 35.968 0 .455 4.254.382 25.289.438 31.688-11.623.877-37.086.052-37.094-.282a681.66 681.66 0 010-30.718c.008-.334.354-.682.688-.688z"/><path d="M39.288 28.488c.34.304-2.63 2.918-5.63 5.881-2.998 2.964-5.63 5.065-8.87 8.18-1.743 1.678-4.154 1.405-6.18-.341-2.026-1.747-3.667-3.966-3.871-4.18-.588-.617-.358-1.648.205-2.38.563-.733 1.62-1.388 2.363-.814.816.63 1.475 1.04 2.288 2.12.193.255 2.56 2.779 3.497 1.914 2.354-2.173 5.307-5.138 8.27-8.026 1.352-1.32 3.31-3.62 4.61-4.217 1.546-.71 2.02.703 3.318 1.863zM15.445 17.933c6.598-.347 13.214-.092 19.82 0 1.791.025 1.962 3.937 0 3.964a754.62 754.62 0 01-20.386 0c-2.615-.035-1.245-3.869.566-3.964z"/><path d="M15.728 26.994c4.425-.314 8.878-.224 13.308 0 1.387.07 1.645 3.854 0 3.964-4.614.307-9.25.09-13.874 0-2.622-.052-1.242-3.836.566-3.964z"/></g></svg>